<svg xmlns="http://www.w3.org/2000/svg" version="1.1" xmlns:xlink="http://www.w3.org/1999/xlink" xmlns:svgjs="http://svgjs.dev/svgjs" viewBox="0 0 1920 1080"><rect width="1920" height="1080" fill="#0030c2"></rect><g transform="matrix(0.9959292143521045,0.5749999999999998,-0.5749999999999998,0.9959292143521045,314.3425285297037,-540.5603721704244)"><path d="M0,-1080C4.823411046264411,-978.6375883609712,34.23896761646855,-691.9902960602964,28.940466277586467,-471.8255301658273C23.641964938704387,-251.66076427135815,-37.30999746621267,7.931625775740457,-31.791008033292485,240.98859536681465C-26.272018600372295,474.0455649578888,47.72316579740326,707.4510390207951,62.0544028751076,926.5162873806178C76.38563995281194,1145.5815357404404,64.53881491211816,1349.7994667558537,54.19641443293355,1555.3800855257507C43.854013953748954,1760.9607042956477,9.032735738822259,2059.2300142542917,0,2160L 1920 2160 L 1920 -1080 Z" fill="url(&quot;#SvgjsLinearGradient1463&quot;)"></path><path d="M384,-1080C383.70921673024145,-983.2465506047503,380.65579385396654,-704.6650610252075,382.25530038144876,-499.47930362850155C383.854806908931,-294.29354623179563,382.8231907313706,-86.77163429957514,393.59703916489343,151.11454438023574C404.3708875984163,389.00072306004665,453.6023295512297,687.729780155795,446.89839098258585,927.8377684503637C440.19445241394203,1167.9457567449324,363.8564729167949,1386.402102222709,353.3734077530306,1591.7624741476482C342.8903425892663,1797.1228460725874,378.89556795883846,2065.2937456912746,384,2160L 1920 2160 L 1920 -1080 Z" fill="url(&quot;#SvgjsLinearGradient1464&quot;)"></path><path d="M768,-1080C767.0204709287763,-1012.961537649294,765.1798213634834,-843.4103195327687,762.1228255726577,-677.769225895764C759.065829781832,-512.1281322587593,736.2585788771378,-255.4642062179797,749.6580252550463,-86.15343817797199C763.0574716329547,83.15732986203571,834.4913343253342,183.5809377497292,842.5195038401089,338.09538234428226C850.5476733548836,492.60982693883534,816.6709690442734,705.107605189098,797.8270423436949,840.9332293893463C778.9831156431163,976.7588535895945,724.6513703358087,1005.6569691556647,729.4559436366376,1153.0491275457716C734.2605169374665,1300.4412859358786,820.2304727547745,1557.4610343209501,826.6544821486682,1725.2861797299881C833.0784915425619,1893.1113251390261,777.7757470247781,2087.5476966216647,768,2160L 1920 2160 L 1920 -1080 Z" fill="url(&quot;#SvgjsLinearGradient1465&quot;)"></path><path d="M1152,-1080C1164.435904837878,-971.112102187778,1227.2072999488923,-640.2857049625509,1226.6154290272684,-426.67261312666744C1226.0235581056445,-213.05952129078398,1150.4402857521923,-9.844274343719405,1148.448774470256,201.6785510153009C1146.4572631883198,413.2013763743212,1229.0134105490004,640.0066462097575,1214.6663613356511,842.4643390274545C1200.3193121223019,1044.9220318451514,1072.8108727461022,1196.8354310927248,1062.3664791901604,1416.4247079214824C1051.9220856342185,1636.01398475024,1137.0610798650268,2036.0707846535804,1152,2160L 1920 2160 L 1920 -1080 Z" fill="url(&quot;#SvgjsLinearGradient1466&quot;)"></path><path d="M1536,-1080C1535.5730213113366,-1009.8764668188394,1545.7786501470803,-823.6384737998301,1533.4381278680191,-659.2588009130366C1521.097605588958,-494.87912802624305,1456.3196322309022,-240.81475755786929,1461.9568663256334,-93.72196267923863C1467.5941004203646,53.37083219939203,1550.8887190695357,70.9237078867647,1567.2615324364067,223.29796835874734C1583.6343458032777,375.67222883073,1555.40383400872,642.3761224202291,1560.19374652686,820.5236001526572C1564.983659045,998.6710778850853,1595.714333963249,1156.2887323018977,1596.0010075452474,1292.1828347533158C1596.2876811272458,1428.076937204734,1571.9139559430585,1491.2520206533845,1561.9137880188505,1635.8882148611654C1551.9136200946425,1780.5244090689462,1540.3189646698083,2072.6480358101944,1536,2160L 1920 2160 L 1920 -1080 Z" fill="url(&quot;#SvgjsLinearGradient1467&quot;)"></path></g><defs><linearGradient x1="0.1" y1="0" x2="0" y2="1" id="SvgjsLinearGradient1463"><stop stop-color="#0030c2" offset="0"></stop><stop stop-color="#0050c2" offset="0"></stop></linearGradient><linearGradient x1="0.1" y1="0" x2="0" y2="1" id="SvgjsLinearGradient1464"><stop stop-color="#154fff" offset="0"></stop><stop stop-color="#1576ff" offset="0.2"></stop></linearGradient><linearGradient x1="0.1" y1="0" x2="0" y2="1" id="SvgjsLinearGradient1465"><stop stop-color="#678cff" offset="0"></stop><stop stop-color="#67a5ff" offset="0.4"></stop></linearGradient><linearGradient x1="0.1" y1="0" x2="0" y2="1" id="SvgjsLinearGradient1466"><stop stop-color="#b9caff" offset="0"></stop><stop stop-color="#b9d6ff" offset="0.6"></stop></linearGradient><linearGradient x1="0.1" y1="0" x2="0" y2="1" id="SvgjsLinearGradient1467"><stop stop-color="#ffffff" offset="0"></stop><stop stop-color="#ffffff" offset="0.8"></stop></linearGradient></defs></svg>